<svg xmlns="http://www.w3.org/2000/svg" xmlns:xlink="http://www.w3.org/1999/xlink" width="500" zoomAndPan="magnify" viewBox="0 0 375 374.999991" height="500" preserveAspectRatio="xMidYMid meet" version="1.0"><defs><g/><clipPath id="51ba6a36bc"><path d="M 22.875 6.597656 L 352 6.597656 L 352 302.847656 L 22.875 302.847656 Z M 22.875 6.597656 " clip-rule="nonzero"/></clipPath></defs><g clip-path="url(#51ba6a36bc)"><path fill="#ffffff" d="M 144.453125 6.894531 C 143.914062 6.894531 143.378906 6.917969 142.84375 6.972656 C 142.308594 7.023438 141.777344 7.101562 141.25 7.207031 C 140.71875 7.3125 140.199219 7.445312 139.683594 7.601562 C 139.167969 7.757812 138.664062 7.9375 138.167969 8.144531 C 137.667969 8.347656 137.183594 8.578125 136.707031 8.832031 C 136.234375 9.085938 135.773438 9.363281 135.324219 9.660156 C 134.878906 9.960938 134.445312 10.28125 134.03125 10.621094 C 133.613281 10.964844 133.214844 11.324219 132.835938 11.703125 C 132.457031 12.085938 132.09375 12.484375 131.753906 12.898438 C 131.410156 13.316406 131.089844 13.746094 130.792969 14.195312 C 130.492188 14.640625 130.21875 15.101562 129.964844 15.578125 C 129.710938 16.050781 129.480469 16.539062 129.273438 17.035156 C 129.070312 17.53125 128.886719 18.039062 128.730469 18.554688 C 128.574219 19.066406 128.445312 19.589844 128.339844 20.117188 C 128.234375 20.644531 128.15625 21.175781 128.101562 21.710938 C 128.050781 22.246094 128.023438 22.785156 128.023438 23.320312 C 128.023438 23.859375 128.050781 24.398438 128.101562 24.933594 C 128.15625 25.46875 128.234375 26 128.339844 26.527344 C 128.445312 27.054688 128.574219 27.578125 128.730469 28.089844 C 128.886719 28.605469 129.070312 29.113281 129.273438 29.609375 C 129.480469 30.105469 129.710938 30.59375 129.964844 31.066406 C 130.21875 31.542969 130.492188 32.003906 130.792969 32.449219 C 131.089844 32.898438 131.410156 33.328125 131.753906 33.746094 C 132.09375 34.160156 132.457031 34.558594 132.835938 34.941406 C 133.214844 35.320312 133.613281 35.679688 134.03125 36.023438 C 134.445312 36.363281 134.878906 36.683594 135.324219 36.984375 C 135.773438 37.28125 136.234375 37.558594 136.707031 37.8125 C 137.183594 38.066406 137.667969 38.296875 138.167969 38.5 C 138.664062 38.707031 139.167969 38.886719 139.683594 39.042969 C 140.199219 39.199219 140.71875 39.332031 141.25 39.4375 C 141.777344 39.542969 142.308594 39.621094 142.84375 39.671875 C 143.378906 39.726562 143.914062 39.75 144.453125 39.75 C 144.992188 39.75 145.527344 39.726562 146.0625 39.671875 C 146.597656 39.621094 147.132812 39.542969 147.660156 39.4375 C 148.1875 39.332031 148.707031 39.199219 149.222656 39.042969 C 149.738281 38.886719 150.242188 38.707031 150.742188 38.5 C 151.238281 38.296875 151.722656 38.066406 152.199219 37.8125 C 152.671875 37.558594 153.132812 37.28125 153.582031 36.984375 C 154.027344 36.683594 154.460938 36.363281 154.875 36.023438 C 155.292969 35.679688 155.691406 35.320312 156.070312 34.941406 C 156.453125 34.558594 156.8125 34.160156 157.152344 33.746094 C 157.496094 33.328125 157.816406 32.898438 158.113281 32.449219 C 158.414062 32.003906 158.691406 31.542969 158.941406 31.066406 C 159.195312 30.59375 159.425781 30.105469 159.632812 29.609375 C 159.839844 29.113281 160.019531 28.605469 160.175781 28.089844 C 160.332031 27.578125 160.460938 27.054688 160.566406 26.527344 C 160.671875 26 160.75 25.46875 160.804688 24.933594 C 160.855469 24.398438 160.882812 23.859375 160.882812 23.320312 C 160.882812 22.785156 160.855469 22.246094 160.804688 21.710938 C 160.75 21.175781 160.671875 20.644531 160.566406 20.117188 C 160.460938 19.589844 160.332031 19.066406 160.175781 18.554688 C 160.019531 18.039062 159.839844 17.53125 159.632812 17.035156 C 159.425781 16.539062 159.195312 16.050781 158.941406 15.578125 C 158.691406 15.101562 158.414062 14.640625 158.113281 14.195312 C 157.816406 13.746094 157.496094 13.316406 157.152344 12.898438 C 156.8125 12.484375 156.453125 12.085938 156.070312 11.703125 C 155.691406 11.324219 155.292969 10.964844 154.875 10.621094 C 154.460938 10.28125 154.027344 9.960938 153.582031 9.660156 C 153.132812 9.363281 152.671875 9.085938 152.199219 8.832031 C 151.722656 8.578125 151.238281 8.347656 150.742188 8.144531 C 150.242188 7.9375 149.738281 7.757812 149.222656 7.601562 C 148.707031 7.445312 148.1875 7.3125 147.660156 7.207031 C 147.132812 7.101562 146.597656 7.023438 146.0625 6.972656 C 145.527344 6.917969 144.992188 6.894531 144.453125 6.894531 Z M 229.886719 6.894531 C 229.347656 6.894531 228.8125 6.917969 228.277344 6.972656 C 227.742188 7.023438 227.210938 7.101562 226.683594 7.207031 C 226.15625 7.3125 225.632812 7.445312 225.117188 7.601562 C 224.601562 7.757812 224.097656 7.9375 223.601562 8.144531 C 223.101562 8.347656 222.617188 8.578125 222.144531 8.832031 C 221.667969 9.085938 221.207031 9.363281 220.761719 9.660156 C 220.3125 9.960938 219.878906 10.28125 219.464844 10.621094 C 219.046875 10.964844 218.652344 11.324219 218.269531 11.703125 C 217.890625 12.085938 217.527344 12.484375 217.1875 12.898438 C 216.847656 13.316406 216.527344 13.746094 216.226562 14.195312 C 215.929688 14.640625 215.652344 15.101562 215.398438 15.578125 C 215.144531 16.050781 214.914062 16.539062 214.707031 17.035156 C 214.503906 17.53125 214.320312 18.039062 214.164062 18.554688 C 214.007812 19.066406 213.878906 19.589844 213.773438 20.117188 C 213.667969 20.644531 213.589844 21.175781 213.535156 21.710938 C 213.484375 22.246094 213.457031 22.785156 213.457031 23.320312 C 213.457031 23.859375 213.484375 24.398438 213.535156 24.933594 C 213.589844 25.46875 213.667969 26 213.773438 26.527344 C 213.878906 27.054688 214.007812 27.578125 214.164062 28.089844 C 214.320312 28.605469 214.503906 29.113281 214.707031 29.609375 C 214.914062 30.105469 215.144531 30.59375 215.398438 31.066406 C 215.652344 31.542969 215.929688 32.003906 216.226562 32.449219 C 216.527344 32.898438 216.847656 33.328125 217.1875 33.746094 C 217.527344 34.160156 217.890625 34.558594 218.269531 34.941406 C 218.652344 35.320312 219.046875 35.679688 219.464844 36.023438 C 219.878906 36.363281 220.3125 36.683594 220.761719 36.984375 C 221.207031 37.28125 221.667969 37.558594 222.144531 37.8125 C 222.617188 38.066406 223.101562 38.296875 223.601562 38.5 C 224.097656 38.707031 224.601562 38.886719 225.117188 39.042969 C 225.632812 39.199219 226.15625 39.332031 226.683594 39.4375 C 227.210938 39.542969 227.742188 39.621094 228.277344 39.671875 C 228.8125 39.726562 229.347656 39.75 229.886719 39.75 C 230.425781 39.75 230.960938 39.726562 231.496094 39.671875 C 232.035156 39.621094 232.566406 39.542969 233.09375 39.4375 C 233.621094 39.332031 234.140625 39.199219 234.65625 39.042969 C 235.171875 38.886719 235.679688 38.707031 236.175781 38.5 C 236.671875 38.296875 237.15625 38.066406 237.632812 37.8125 C 238.105469 37.558594 238.566406 37.28125 239.015625 36.984375 C 239.460938 36.683594 239.894531 36.363281 240.308594 36.023438 C 240.726562 35.679688 241.125 35.320312 241.503906 34.941406 C 241.886719 34.558594 242.246094 34.160156 242.589844 33.746094 C 242.929688 33.328125 243.25 32.898438 243.546875 32.449219 C 243.847656 32.003906 244.125 31.542969 244.378906 31.066406 C 244.632812 30.59375 244.859375 30.105469 245.066406 29.609375 C 245.273438 29.113281 245.453125 28.605469 245.609375 28.089844 C 245.765625 27.578125 245.898438 27.054688 246 26.527344 C 246.105469 26 246.183594 25.46875 246.238281 24.933594 C 246.289062 24.398438 246.316406 23.859375 246.316406 23.320312 C 246.316406 22.785156 246.289062 22.246094 246.238281 21.710938 C 246.183594 21.175781 246.105469 20.644531 246 20.117188 C 245.898438 19.589844 245.765625 19.066406 245.609375 18.554688 C 245.453125 18.039062 245.273438 17.53125 245.066406 17.035156 C 244.859375 16.539062 244.632812 16.050781 244.378906 15.578125 C 244.125 15.101562 243.847656 14.640625 243.546875 14.195312 C 243.25 13.746094 242.929688 13.316406 242.585938 12.898438 C 242.246094 12.484375 241.886719 12.085938 241.503906 11.703125 C 241.125 11.324219 240.726562 10.964844 240.308594 10.621094 C 239.894531 10.28125 239.460938 9.960938 239.015625 9.660156 C 238.566406 9.363281 238.105469 9.085938 237.632812 8.832031 C 237.15625 8.578125 236.671875 8.347656 236.175781 8.144531 C 235.679688 7.9375 235.171875 7.757812 234.65625 7.601562 C 234.140625 7.445312 233.621094 7.3125 233.09375 7.207031 C 232.566406 7.101562 232.035156 7.023438 231.496094 6.972656 C 230.960938 6.917969 230.425781 6.894531 229.886719 6.894531 Z M 246.484375 65.859375 C 245.359375 65.851562 244.300781 66.117188 243.3125 66.652344 C 242.320312 67.1875 241.523438 67.929688 240.914062 68.875 C 240.914062 68.875 219.609375 98.898438 187.171875 98.898438 C 154.730469 98.898438 133.425781 68.875 133.425781 68.875 C 132.804688 67.945312 131.996094 67.222656 131.003906 66.703125 C 130.007812 66.1875 128.953125 65.9375 127.832031 65.960938 C 127.234375 65.976562 126.648438 66.066406 126.078125 66.238281 C 125.503906 66.414062 124.96875 66.660156 124.460938 66.976562 C 123.957031 67.296875 123.503906 67.675781 123.101562 68.121094 C 122.703125 68.5625 122.367188 69.050781 122.097656 69.585938 C 121.832031 70.121094 121.640625 70.679688 121.523438 71.265625 C 121.410156 71.851562 121.375 72.441406 121.421875 73.039062 C 121.464844 73.632812 121.589844 74.210938 121.792969 74.773438 C 122 75.335938 122.273438 75.859375 122.621094 76.347656 C 122.621094 76.347656 146.820312 112.042969 187.171875 112.042969 C 227.519531 112.042969 251.722656 76.347656 251.722656 76.347656 C 252.082031 75.859375 252.371094 75.332031 252.585938 74.765625 C 252.800781 74.195312 252.9375 73.609375 252.988281 73.003906 C 253.042969 72.402344 253.011719 71.800781 252.898438 71.203125 C 252.785156 70.609375 252.59375 70.039062 252.320312 69.496094 C 252.050781 68.953125 251.710938 68.457031 251.300781 68.007812 C 250.894531 67.558594 250.429688 67.175781 249.917969 66.851562 C 249.402344 66.53125 248.851562 66.289062 248.269531 66.117188 C 247.6875 65.949219 247.089844 65.863281 246.484375 65.859375 Z M 101.839844 84.332031 C 101.019531 84.332031 100.226562 84.480469 99.464844 84.78125 L 60.035156 99.308594 C 59.042969 99.625 58.179688 100.148438 57.4375 100.875 C 56.699219 101.605469 56.160156 102.460938 55.824219 103.441406 L 23.875 154.566406 C 23.617188 154.980469 23.410156 155.417969 23.246094 155.878906 C 23.085938 156.339844 22.980469 156.8125 22.925781 157.296875 C 22.867188 157.78125 22.867188 158.265625 22.917969 158.75 C 22.972656 159.234375 23.078125 159.707031 23.234375 160.171875 C 23.394531 160.632812 23.601562 161.070312 23.855469 161.484375 C 24.109375 161.902344 24.410156 162.28125 24.75 162.632812 C 25.089844 162.980469 25.464844 163.289062 25.875 163.554688 C 26.285156 163.820312 26.714844 164.039062 27.175781 164.207031 L 55.734375 174.730469 L 55.734375 250.050781 C 55.734375 250.722656 55.835938 251.378906 56.035156 252.019531 C 56.238281 252.660156 56.53125 253.257812 56.917969 253.808594 C 57.300781 254.359375 57.757812 254.839844 58.289062 255.25 C 58.820312 255.660156 59.402344 255.980469 60.035156 256.210938 L 184.898438 302.214844 C 186.414062 302.773438 187.929688 302.773438 189.441406 302.214844 L 314.308594 256.210938 C 314.9375 255.980469 315.519531 255.660156 316.050781 255.25 C 316.582031 254.839844 317.039062 254.359375 317.425781 253.808594 C 317.808594 253.257812 318.101562 252.660156 318.304688 252.019531 C 318.507812 251.378906 318.605469 250.722656 318.609375 250.050781 L 318.609375 174.730469 L 347.167969 164.207031 C 347.625 164.039062 348.058594 163.820312 348.464844 163.554688 C 348.875 163.289062 349.25 162.980469 349.589844 162.632812 C 349.933594 162.28125 350.230469 161.902344 350.484375 161.484375 C 350.742188 161.070312 350.949219 160.632812 351.105469 160.171875 C 351.261719 159.707031 351.367188 159.234375 351.421875 158.75 C 351.472656 158.265625 351.472656 157.78125 351.417969 157.296875 C 351.363281 156.8125 351.253906 156.339844 351.09375 155.878906 C 350.933594 155.417969 350.722656 154.980469 350.464844 154.566406 L 318.503906 103.417969 C 318.167969 102.441406 317.628906 101.589844 316.890625 100.867188 C 316.152344 100.144531 315.292969 99.625 314.308594 99.308594 C 314.222656 99.277344 314.136719 99.246094 314.050781 99.21875 L 274.875 84.78125 C 274.046875 84.460938 273.1875 84.3125 272.296875 84.34375 C 271.53125 84.371094 270.796875 84.527344 270.089844 84.8125 C 269.378906 85.097656 268.738281 85.496094 268.167969 86.003906 C 267.597656 86.511719 267.132812 87.101562 266.765625 87.773438 C 266.402344 88.441406 266.160156 89.15625 266.042969 89.910156 C 265.929688 90.667969 265.941406 91.417969 266.089844 92.167969 C 266.234375 92.917969 266.503906 93.621094 266.894531 94.277344 C 267.285156 94.933594 267.777344 95.503906 268.367188 95.988281 C 268.957031 96.472656 269.613281 96.84375 270.332031 97.101562 L 293.039062 105.46875 L 187.171875 144.476562 L 81.300781 105.46875 L 104.007812 97.101562 C 104.738281 96.84375 105.402344 96.46875 106 95.976562 C 106.601562 95.484375 107.09375 94.902344 107.488281 94.234375 C 107.882812 93.566406 108.148438 92.851562 108.289062 92.089844 C 108.429688 91.328125 108.433594 90.566406 108.304688 89.800781 C 108.175781 89.039062 107.917969 88.320312 107.535156 87.648438 C 107.148438 86.972656 106.660156 86.386719 106.070312 85.886719 C 105.480469 85.386719 104.820312 85 104.09375 84.734375 C 103.363281 84.464844 102.613281 84.332031 101.839844 84.332031 Z M 65.050781 113.480469 L 177.324219 154.835938 L 177.324219 154.847656 L 151.578125 196.039062 L 39.289062 154.683594 Z M 309.289062 113.480469 L 335.050781 154.683594 L 222.765625 196.039062 L 197.027344 154.847656 Z M 180.597656 174.371094 L 180.597656 286.621094 L 68.878906 245.46875 L 68.878906 179.570312 L 152.039062 210.210938 C 152.746094 210.46875 153.480469 210.605469 154.234375 210.613281 C 154.988281 210.621094 155.722656 210.503906 156.4375 210.261719 C 157.152344 210.015625 157.804688 209.660156 158.394531 209.191406 C 158.984375 208.722656 159.480469 208.167969 159.882812 207.527344 Z M 193.742188 174.371094 L 214.460938 207.527344 C 214.859375 208.167969 215.355469 208.722656 215.945312 209.191406 C 216.539062 209.660156 217.191406 210.015625 217.902344 210.261719 C 218.617188 210.503906 219.351562 210.621094 220.105469 210.613281 C 220.863281 210.605469 221.59375 210.46875 222.300781 210.210938 L 305.464844 179.570312 L 305.464844 245.46875 L 193.742188 286.621094 Z M 193.742188 174.371094 " fill-opacity="1" fill-rule="nonzero"/></g><g fill="#ffffff" fill-opacity="1"><g transform="translate(50.680501, 356.688937)"><g><path d="M 2.671875 0 L 2.671875 -34.546875 L 10.96875 -34.546875 L 10.96875 -7.125 L 25.328125 -7.125 L 25.328125 0 Z M 2.671875 0 "/></g></g></g><g fill="#ffffff" fill-opacity="1"><g transform="translate(76.728769, 356.688937)"><g><path d="M 20.578125 1.21875 C 16.722656 1.21875 13.363281 0.453125 10.5 -1.078125 C 7.632812 -2.617188 5.410156 -4.769531 3.828125 -7.53125 C 2.242188 -10.300781 1.453125 -13.546875 1.453125 -17.265625 C 1.453125 -20.984375 2.242188 -24.222656 3.828125 -26.984375 C 5.410156 -29.753906 7.632812 -31.90625 10.5 -33.4375 C 13.363281 -34.976562 16.722656 -35.75 20.578125 -35.75 C 24.453125 -35.75 27.820312 -34.976562 30.6875 -33.4375 C 33.550781 -31.90625 35.773438 -29.753906 37.359375 -26.984375 C 38.941406 -24.222656 39.734375 -20.984375 39.734375 -17.265625 C 39.734375 -13.546875 38.941406 -10.300781 37.359375 -7.53125 C 35.773438 -4.769531 33.550781 -2.617188 30.6875 -1.078125 C 27.820312 0.453125 24.453125 1.21875 20.578125 1.21875 Z M 20.578125 -5.921875 C 22.773438 -5.921875 24.6875 -6.390625 26.3125 -7.328125 C 27.945312 -8.265625 29.207031 -9.585938 30.09375 -11.296875 C 30.988281 -13.015625 31.4375 -15.003906 31.4375 -17.265625 C 31.4375 -19.566406 30.988281 -21.570312 30.09375 -23.28125 C 29.207031 -25 27.945312 -26.328125 26.3125 -27.265625 C 24.6875 -28.203125 22.773438 -28.671875 20.578125 -28.671875 C 18.398438 -28.671875 16.492188 -28.203125 14.859375 -27.265625 C 13.234375 -26.328125 11.972656 -25 11.078125 -23.28125 C 10.191406 -21.570312 9.75 -19.566406 9.75 -17.265625 C 9.75 -15.003906 10.191406 -13.015625 11.078125 -11.296875 C 11.972656 -9.585938 13.234375 -8.265625 14.859375 -7.328125 C 16.492188 -6.390625 18.398438 -5.921875 20.578125 -5.921875 Z M 20.578125 -5.921875 "/></g></g></g><g fill="#ffffff" fill-opacity="1"><g transform="translate(117.911238, 356.688937)"><g><path d="M 18.484375 1.109375 C 15.148438 1.109375 12.195312 0.332031 9.625 -1.21875 C 7.050781 -2.769531 5.046875 -4.925781 3.609375 -7.6875 C 2.171875 -10.457031 1.453125 -13.648438 1.453125 -17.265625 C 1.453125 -20.921875 2.21875 -24.140625 3.75 -26.921875 C 5.289062 -29.703125 7.425781 -31.867188 10.15625 -33.421875 C 12.894531 -34.972656 16.0625 -35.75 19.65625 -35.75 C 22.207031 -35.75 24.550781 -35.269531 26.6875 -34.3125 C 28.820312 -33.363281 30.640625 -32.039062 32.140625 -30.34375 C 33.640625 -28.644531 34.679688 -26.679688 35.265625 -24.453125 L 27.65625 -22.84375 C 27.101562 -24.5625 26.082031 -25.960938 24.59375 -27.046875 C 23.101562 -28.128906 21.421875 -28.671875 19.546875 -28.671875 C 17.640625 -28.671875 15.941406 -28.1875 14.453125 -27.21875 C 12.960938 -26.25 11.804688 -24.914062 10.984375 -23.21875 C 10.160156 -21.519531 9.75 -19.535156 9.75 -17.265625 C 9.75 -15.003906 10.21875 -13 11.15625 -11.25 C 12.09375 -9.507812 13.382812 -8.144531 15.03125 -7.15625 C 16.6875 -6.164062 18.582031 -5.671875 20.71875 -5.671875 C 22.5625 -5.671875 24.207031 -6.050781 25.65625 -6.8125 C 27.113281 -7.570312 28.285156 -8.613281 29.171875 -9.9375 C 30.066406 -11.269531 30.546875 -12.773438 30.609375 -14.453125 L 15.765625 -14.453125 L 15.765625 -19.59375 L 38.71875 -19.59375 L 38.71875 0 L 32.65625 0 L 31.828125 -6.546875 L 31.78125 -6.546875 C 30.675781 -4.148438 28.941406 -2.273438 26.578125 -0.921875 C 24.222656 0.429688 21.523438 1.109375 18.484375 1.109375 Z M 18.484375 1.109375 "/></g></g></g><g fill="#ffffff" fill-opacity="1"><g transform="translate(158.560117, 356.688937)"><g><path d="M 20.1875 1.21875 C 16.363281 1.21875 13.050781 0.46875 10.25 -1.03125 C 7.457031 -2.539062 5.289062 -4.675781 3.75 -7.4375 C 2.21875 -10.207031 1.453125 -13.484375 1.453125 -17.265625 C 1.453125 -21.054688 2.179688 -24.332031 3.640625 -27.09375 C 5.097656 -29.863281 7.160156 -32 9.828125 -33.5 C 12.492188 -35 15.640625 -35.75 19.265625 -35.75 C 22.109375 -35.75 24.65625 -35.234375 26.90625 -34.203125 C 29.15625 -33.171875 31.003906 -31.695312 32.453125 -29.78125 C 33.910156 -27.875 34.832031 -25.613281 35.21875 -23 L 27.65625 -21.109375 C 27.226562 -23.429688 26.285156 -25.269531 24.828125 -26.625 C 23.378906 -27.988281 21.523438 -28.671875 19.265625 -28.671875 C 16.347656 -28.671875 14.03125 -27.644531 12.3125 -25.59375 C 10.601562 -23.539062 9.75 -20.765625 9.75 -17.265625 C 9.78125 -13.804688 10.738281 -11.050781 12.625 -9 C 14.519531 -6.945312 17.070312 -5.921875 20.28125 -5.921875 C 22.925781 -5.921875 25.15625 -6.726562 26.96875 -8.34375 C 28.78125 -9.957031 29.898438 -12.125 30.328125 -14.84375 L 38.078125 -13.78125 C 37.722656 -10.738281 36.753906 -8.09375 35.171875 -5.84375 C 33.585938 -3.59375 31.515625 -1.851562 28.953125 -0.625 C 26.398438 0.601562 23.476562 1.21875 20.1875 1.21875 Z M 20.1875 1.21875 "/></g></g></g><g fill="#ffffff" fill-opacity="1"><g transform="translate(197.462761, 356.688937)"><g><path d="M 2.671875 0 L 2.671875 -34.546875 L 10.96875 -34.546875 L 10.96875 -7.125 L 25.328125 -7.125 L 25.328125 0 Z M 2.671875 0 "/></g></g></g><g fill="#ffffff" fill-opacity="1"><g transform="translate(223.511029, 356.688937)"><g><path d="M 0.25 0 L 12.765625 -34.546875 L 22.90625 -34.546875 L 35.375 0 L 26.6875 0 L 24.453125 -6.796875 L 11.15625 -6.796875 L 8.921875 0 Z M 12.65625 -12.65625 L 22.953125 -12.65625 L 17.859375 -28 L 17.75 -28 Z M 12.65625 -12.65625 "/></g></g></g><g fill="#ffffff" fill-opacity="1"><g transform="translate(259.115174, 356.688937)"><g><path d="M 16.78125 1.21875 C 13.9375 1.21875 11.375 0.773438 9.09375 -0.109375 C 6.8125 -1.003906 4.96875 -2.316406 3.5625 -4.046875 C 2.15625 -5.773438 1.320312 -7.882812 1.0625 -10.375 L 8.640625 -11.796875 C 8.898438 -9.722656 9.804688 -8.0625 11.359375 -6.8125 C 12.910156 -5.570312 14.832031 -4.953125 17.125 -4.953125 C 19.195312 -4.953125 20.832031 -5.378906 22.03125 -6.234375 C 23.226562 -7.085938 23.828125 -8.179688 23.828125 -9.515625 C 23.828125 -10.578125 23.375 -11.4375 22.46875 -12.09375 C 21.5625 -12.757812 20.085938 -13.304688 18.046875 -13.734375 L 13.25 -14.65625 C 9.425781 -15.394531 6.632812 -16.554688 4.875 -18.140625 C 3.113281 -19.722656 2.234375 -21.875 2.234375 -24.59375 C 2.234375 -26.863281 2.820312 -28.828125 4 -30.484375 C 5.175781 -32.148438 6.804688 -33.441406 8.890625 -34.359375 C 10.984375 -35.285156 13.359375 -35.75 16.015625 -35.75 C 18.441406 -35.75 20.628906 -35.335938 22.578125 -34.515625 C 24.535156 -33.691406 26.132812 -32.535156 27.375 -31.046875 C 28.625 -29.554688 29.394531 -27.8125 29.6875 -25.8125 L 22.265625 -24.15625 C 22.035156 -25.84375 21.335938 -27.175781 20.171875 -28.15625 C 19.015625 -29.144531 17.59375 -29.640625 15.90625 -29.640625 C 14.226562 -29.640625 12.882812 -29.234375 11.875 -28.421875 C 10.875 -27.617188 10.375 -26.601562 10.375 -25.375 C 10.375 -24.34375 10.785156 -23.519531 11.609375 -22.90625 C 12.441406 -22.289062 13.75 -21.800781 15.53125 -21.4375 L 20.421875 -20.515625 C 24.367188 -19.867188 27.265625 -18.722656 29.109375 -17.078125 C 30.953125 -15.429688 31.875 -13.195312 31.875 -10.375 C 31.875 -7.988281 31.234375 -5.921875 29.953125 -4.171875 C 28.679688 -2.421875 26.910156 -1.082031 24.640625 -0.15625 C 22.378906 0.757812 19.757812 1.21875 16.78125 1.21875 Z M 16.78125 1.21875 "/></g></g></g><g fill="#ffffff" fill-opacity="1"><g transform="translate(291.711907, 356.688937)"><g><path d="M 16.78125 1.21875 C 13.9375 1.21875 11.375 0.773438 9.09375 -0.109375 C 6.8125 -1.003906 4.96875 -2.316406 3.5625 -4.046875 C 2.15625 -5.773438 1.320312 -7.882812 1.0625 -10.375 L 8.640625 -11.796875 C 8.898438 -9.722656 9.804688 -8.0625 11.359375 -6.8125 C 12.910156 -5.570312 14.832031 -4.953125 17.125 -4.953125 C 19.195312 -4.953125 20.832031 -5.378906 22.03125 -6.234375 C 23.226562 -7.085938 23.828125 -8.179688 23.828125 -9.515625 C 23.828125 -10.578125 23.375 -11.4375 22.46875 -12.09375 C 21.5625 -12.757812 20.085938 -13.304688 18.046875 -13.734375 L 13.25 -14.65625 C 9.425781 -15.394531 6.632812 -16.554688 4.875 -18.140625 C 3.113281 -19.722656 2.234375 -21.875 2.234375 -24.59375 C 2.234375 -26.863281 2.820312 -28.828125 4 -30.484375 C 5.175781 -32.148438 6.804688 -33.441406 8.890625 -34.359375 C 10.984375 -35.285156 13.359375 -35.75 16.015625 -35.75 C 18.441406 -35.75 20.628906 -35.335938 22.578125 -34.515625 C 24.535156 -33.691406 26.132812 -32.535156 27.375 -31.046875 C 28.625 -29.554688 29.394531 -27.8125 29.6875 -25.8125 L 22.265625 -24.15625 C 22.035156 -25.84375 21.335938 -27.175781 20.171875 -28.15625 C 19.015625 -29.144531 17.59375 -29.640625 15.90625 -29.640625 C 14.226562 -29.640625 12.882812 -29.234375 11.875 -28.421875 C 10.875 -27.617188 10.375 -26.601562 10.375 -25.375 C 10.375 -24.34375 10.785156 -23.519531 11.609375 -22.90625 C 12.441406 -22.289062 13.75 -21.800781 15.53125 -21.4375 L 20.421875 -20.515625 C 24.367188 -19.867188 27.265625 -18.722656 29.109375 -17.078125 C 30.953125 -15.429688 31.875 -13.195312 31.875 -10.375 C 31.875 -7.988281 31.234375 -5.921875 29.953125 -4.171875 C 28.679688 -2.421875 26.910156 -1.082031 24.640625 -0.15625 C 22.378906 0.757812 19.757812 1.21875 16.78125 1.21875 Z M 16.78125 1.21875 "/></g></g></g></svg>